<?xml version="1.0" encoding="UTF-8"?>
<svg xmlns="http://www.w3.org/2000/svg" xmlns:xlink="http://www.w3.org/1999/xlink" viewBox="0 0 50 50" version="1.1" fill="#5d534d"><g id="surface1" fill="#5d534d"><path style=" " d="M 19 2 C 18.480469 2 18.046875 2.398438 18.003906 2.917969 L 17.003906 14.917969 C 16.960938 15.425781 17.304688 15.882813 17.800781 15.980469 L 21 16.621094 L 21 16 C 21 15.117188 21.390625 14.328125 22 13.78125 L 22 9 L 20 9 L 20 7 L 26 7 L 26 9 L 24 9 L 24 13 L 28.839844 13 L 27.996094 2.917969 C 27.953125 2.398438 27.519531 2 27 2 Z M 14 15 C 11.242188 15 9 17.242188 9 20 L 9 22.828125 C 8.621094 23.859375 6.511719 29.730469 6.082031 33.003906 C 6.050781 33 6.015625 33 5.984375 33 C 5.707031 33.003906 5.449219 33.121094 5.261719 33.328125 C 5.078125 33.53125 4.984375 33.800781 5.003906 34.078125 L 6.003906 47.078125 C 6.042969 47.597656 6.476563 48 7 48 L 30.066406 48 C 27.5 46.070313 23.675781 42.441406 21.933594 37 L 14.300781 37 C 13.90625 37.609375 13.390625 38.484375 12.882813 39.53125 C 12.835938 39.445313 12.777344 39.363281 12.707031 39.292969 L 11 37.585938 L 11 36 L 14 28 L 14.875 35 L 21.40625 35 C 21.152344 33.75 21 32.417969 21 31 L 21 18.65625 L 17.410156 17.941406 C 16.367188 17.734375 15.5625 16.996094 15.207031 16.058594 C 15.203125 16.046875 15.199219 16.039063 15.195313 16.03125 C 15.160156 15.9375 15.136719 15.839844 15.109375 15.742188 C 15.050781 15.503906 15.015625 15.257813 15.015625 15.003906 C 15.007813 15.003906 15.003906 15 15 15 Z M 24 15 C 23.449219 15 23 15.449219 23 16 L 23 31 C 23 42.226563 33.105469 47.660156 33.535156 47.886719 C 33.679688 47.960938 33.839844 48 34 48 C 34.152344 48 34.304688 47.964844 34.449219 47.894531 C 34.878906 47.679688 45 42.484375 45 31 L 45 16 C 45 15.449219 44.550781 15 44 15 Z M 14 17 L 14.898438 17 C 14.4375 19.449219 12.382813 20.835938 11 21.511719 L 11 20 C 11 18.347656 12.347656 17 14 17 Z M 32 19 L 36 19 C 36 19 35 19.582031 35 21 L 35 26 L 39 26 C 40.4375 26 41 25 41 25 L 41 29 C 41 29 40.417969 28 39 28 L 35 28 L 35 41 C 35 42.417969 36 43 36 43 L 32 43 C 32 43 33 42.4375 33 41 L 33 28 L 29 28 C 27.582031 28 27 29 27 29 L 27 25 C 27 25 27.5625 26 29 26 L 33 26 L 33 21 C 33 19.5625 32 19 32 19 Z M 7.203125 36.617188 L 10.9375 40.355469 L 10.132813 46 L 7.925781 46 Z " fill="#5d534d"/></g></svg>
