<?xml version="1.0" encoding="UTF-8"?>
<svg xmlns="http://www.w3.org/2000/svg" xmlns:xlink="http://www.w3.org/1999/xlink" viewBox="0 0 80 80" version="1.1" fill="#5d534d"><g id="surface1" fill="#5d534d"><path style=" " d="M 14.277344 9 L 18.703125 16.75 L 21.535156 43.628906 C 21.726563 45.445313 22.773438 46.929688 24.199219 47.894531 C 22.726563 48.753906 21.589844 50.15625 21.269531 51.925781 L 17.800781 71 L 62.199219 71 L 58.730469 51.925781 C 58.410156 50.15625 57.273438 48.757813 55.800781 47.894531 C 57.226563 46.929688 58.277344 45.445313 58.46875 43.625 L 60.636719 23 L 61 23 C 63.21875 23 65 24.78125 65 27 L 65 40.5 C 65 42.421875 66.578125 44 68.5 44 C 70.421875 44 72 42.421875 72 40.5 L 72 27 C 72 21.066406 67.25 16.28125 61.367188 16.074219 L 62.109375 9 Z M 17.722656 11 L 59.890625 11 L 59.152344 18 L 61 18 C 65.984375 18 70 22.015625 70 27 L 70 40.5 C 70 41.339844 69.339844 42 68.5 42 C 67.660156 42 67 41.339844 67 40.5 L 67 27 C 67 23.699219 64.300781 21 61 21 L 58.835938 21 L 56.476563 43.417969 C 56.261719 45.460938 54.554688 47 52.5 47 L 52.5 49 L 52.828125 49 C 54.765625 49 56.414063 50.375 56.761719 52.285156 L 59.800781 69 L 20.199219 69 L 23.234375 52.285156 C 23.582031 50.375 25.234375 49 27.171875 49 L 27.5 49 L 27.5 47 C 25.449219 47 23.738281 45.464844 23.523438 43.421875 L 23.164063 40 L 28 40 C 28.359375 40.003906 28.695313 39.816406 28.878906 39.503906 C 29.058594 39.191406 29.058594 38.808594 28.878906 38.496094 C 28.695313 38.183594 28.359375 37.996094 28 38 L 23 38 C 22.984375 38 22.96875 38 22.953125 38 L 22.53125 34 L 28 34 C 28.359375 34.003906 28.695313 33.816406 28.878906 33.503906 C 29.058594 33.191406 29.058594 32.808594 28.878906 32.496094 C 28.695313 32.183594 28.359375 31.996094 28 32 L 22.324219 32 L 21.902344 28 L 28 28 C 28.359375 28.003906 28.695313 27.816406 28.878906 27.503906 C 29.058594 27.191406 29.058594 26.808594 28.878906 26.496094 C 28.695313 26.183594 28.359375 25.996094 28 26 L 21.6875 26 L 21.269531 22 L 28 22 C 28.359375 22.003906 28.695313 21.816406 28.878906 21.503906 C 29.058594 21.191406 29.058594 20.808594 28.878906 20.496094 C 28.695313 20.183594 28.359375 19.996094 28 20 L 21.058594 20 L 20.652344 16.125 Z M 30 47 C 29.449219 47 29 47.449219 29 48 C 29 48.550781 29.449219 49 30 49 C 30.550781 49 31 48.550781 31 48 C 31 47.449219 30.550781 47 30 47 Z M 34 47 C 33.449219 47 33 47.449219 33 48 C 33 48.550781 33.449219 49 34 49 C 34.550781 49 35 48.550781 35 48 C 35 47.449219 34.550781 47 34 47 Z M 38 47 C 37.449219 47 37 47.449219 37 48 C 37 48.550781 37.449219 49 38 49 C 38.550781 49 39 48.550781 39 48 C 39 47.449219 38.550781 47 38 47 Z M 42 47 C 41.449219 47 41 47.449219 41 48 C 41 48.550781 41.449219 49 42 49 C 42.550781 49 43 48.550781 43 48 C 43 47.449219 42.550781 47 42 47 Z M 46 47 C 45.449219 47 45 47.449219 45 48 C 45 48.550781 45.449219 49 46 49 C 46.550781 49 47 48.550781 47 48 C 47 47.449219 46.550781 47 46 47 Z M 50 47 C 49.449219 47 49 47.449219 49 48 C 49 48.550781 49.449219 49 50 49 C 50.550781 49 51 48.550781 51 48 C 51 47.449219 50.550781 47 50 47 Z M 40 53 C 36.699219 53 34 55.699219 34 59 C 34 62.300781 36.699219 65 40 65 C 43.300781 65 46 62.300781 46 59 C 46 55.699219 43.300781 53 40 53 Z M 40 55 C 40.742188 55 41.429688 55.214844 42.023438 55.5625 L 36.5625 61.023438 C 36.214844 60.429688 36 59.742188 36 59 C 36 56.777344 37.777344 55 40 55 Z M 43.4375 56.976563 C 43.785156 57.570313 44 58.257813 44 59 C 44 61.222656 42.222656 63 40 63 C 39.257813 63 38.570313 62.785156 37.976563 62.4375 Z " fill="#5d534d"/></g></svg>
