<?xml version="1.0" encoding="UTF-8"?>
<svg xmlns="http://www.w3.org/2000/svg" xmlns:xlink="http://www.w3.org/1999/xlink" viewBox="0 0 50 50" version="1.1" fill="#5d534d"><g id="surface1" fill="#5d534d"><path style=" " d="M 42.34375 -0.0625 C 42.164063 -0.0546875 41.964844 -0.0273438 41.78125 0 C 41.046875 0.109375 40.277344 0.410156 39.65625 1.03125 C 39.53125 1.164063 39.429688 1.308594 39.34375 1.46875 C 39.34375 1.46875 39.128906 1.84375 38.9375 2.34375 C 38.746094 2.84375 38.296875 3.457031 38.75 4.75 C 39.332031 6.402344 41.09375 10.878906 41.96875 15.6875 C 42.84375 20.496094 42.589844 25.222656 40.34375 27.46875 C 38.324219 29.488281 34 30.625 34 30.625 C 33.621094 30.703125 33.273438 30.886719 33 31.15625 L 31.15625 33 C 30.886719 33.273438 30.703125 33.621094 30.625 34 C 30.625 34 29.5625 38.28125 27.46875 40.375 C 24.75 43.09375 20.160156 43.300781 15.5625 42.4375 C 10.964844 41.574219 6.714844 39.714844 5.21875 39.0625 C 3.996094 38.527344 2.628906 38.828125 1.625 39.65625 L 1.59375 39.59375 C 1.59375 39.59375 1.433594 39.734375 1.375 39.78125 C 1.363281 39.792969 1.355469 39.800781 1.34375 39.8125 C 1.0625 40.050781 0.492188 40.589844 0.1875 41.59375 C -0.199219 42.871094 0.136719 44.644531 1.4375 46.25 C 2.128906 47.113281 3.386719 47.253906 4.25 46.5625 C 5.113281 45.871094 5.253906 44.613281 4.5625 43.75 C 3.945313 42.988281 4.097656 42.941406 4.125 42.90625 C 5.835938 43.652344 9.941406 45.460938 14.8125 46.375 C 19.988281 47.347656 26.148438 47.351563 30.3125 43.1875 C 33.300781 40.199219 34.15625 36.390625 34.34375 35.46875 L 35.46875 34.34375 C 36.359375 34.15625 40.222656 33.28125 43.1875 30.3125 C 47.105469 26.398438 46.835938 20.265625 45.875 14.96875 C 44.972656 10 43.332031 5.660156 42.71875 3.96875 C 43.09375 4.074219 43.691406 4.503906 43.59375 4.40625 C 44.074219 5.003906 44.851563 5.273438 45.597656 5.101563 C 46.347656 4.929688 46.929688 4.347656 47.101563 3.597656 C 47.273438 2.851563 47.003906 2.074219 46.40625 1.59375 C 45.710938 0.898438 44.953125 0.441406 43.8125 0.125 C 43.386719 0.00390625 42.886719 -0.0820313 42.34375 -0.0625 Z M 37.03125 5.875 L 5.78125 37.125 C 5.863281 37.15625 5.953125 37.183594 6.03125 37.21875 C 6.457031 37.40625 6.863281 37.578125 7.28125 37.75 L 37.59375 7.4375 C 37.445313 7.011719 37.285156 6.570313 37.125 6.125 Z " fill="#5d534d"/></g></svg>
