<?xml version="1.0" encoding="UTF-8"?>
<svg xmlns="http://www.w3.org/2000/svg" xmlns:xlink="http://www.w3.org/1999/xlink" viewBox="0 0 50 50" version="1.1" fill="#5d534d"><g id="surface1" fill="#5d534d"><path style=" " d="M 24 0.5 L 6.5 14.125 C 6.523438 14.109375 6.570313 14.105469 6.59375 14.09375 C 6.625 14.078125 6.652344 14.074219 6.6875 14.0625 L 24 8.28125 Z M 26 0.5 L 26 8.28125 L 43.3125 14.0625 C 43.421875 14.097656 43.535156 14.148438 43.625 14.21875 Z M 25 10.8125 L 10.875 32 L 39.125 32 Z M 22.5625 10.875 L 8.09375 15.6875 L 9.6875 30.15625 Z M 27.4375 10.875 L 40.3125 30.15625 L 41.53125 19.21875 L 41.90625 15.6875 Z M 43.90625 14.65625 C 43.933594 14.726563 43.957031 14.769531 43.96875 14.84375 C 43.976563 14.890625 44 14.949219 44 15 C 44 15.035156 44.003906 15.089844 44 15.125 L 43.96875 15.40625 L 43.96875 15.4375 L 42.0625 32.40625 L 49.8125 36.1875 L 43.96875 14.75 C 43.960938 14.714844 43.921875 14.6875 43.90625 14.65625 Z M 5.9375 15.125 L 0.125 36.40625 L 0.21875 36.375 C 0.304688 36.273438 0.433594 36.15625 0.5625 36.09375 L 7.9375 32.40625 L 6.09375 16 C 6.035156 15.640625 5.9375 15.125 5.9375 15.125 Z M 27.875 20.8125 C 28.011719 20.796875 28.164063 20.8125 28.3125 20.8125 C 28.914063 20.8125 29.414063 20.886719 29.8125 21.1875 C 30.210938 21.488281 30.488281 21.914063 30.6875 22.3125 C 30.886719 22.710938 31.09375 23.210938 31.09375 23.8125 C 31.195313 24.3125 31.1875 24.8125 31.1875 25.3125 C 31.1875 25.8125 31.195313 26.3125 31.09375 26.8125 C 30.996094 27.3125 30.886719 27.8125 30.6875 28.3125 C 30.488281 28.710938 30.210938 29.105469 29.8125 29.40625 C 29.414063 29.707031 28.914063 29.8125 28.3125 29.8125 C 27.710938 29.8125 27.210938 29.707031 26.8125 29.40625 C 26.414063 29.105469 26.105469 28.710938 25.90625 28.3125 C 25.707031 27.914063 25.5 27.414063 25.5 26.8125 C 25.398438 26.3125 25.40625 25.8125 25.40625 25.3125 C 25.40625 24.8125 25.398438 24.3125 25.5 23.8125 C 25.601563 23.3125 25.707031 22.8125 25.90625 22.3125 C 26.105469 21.914063 26.414063 21.488281 26.8125 21.1875 C 27.113281 20.960938 27.460938 20.855469 27.875 20.8125 Z M 21.6875 20.90625 C 22.1875 20.90625 22.699219 20.988281 23 21.1875 C 23.398438 21.386719 23.605469 21.605469 23.90625 21.90625 C 24.105469 22.207031 24.304688 22.511719 24.40625 22.8125 C 24.507813 23.113281 24.5 23.386719 24.5 23.6875 C 24.5 23.988281 24.414063 24.394531 24.3125 24.59375 C 24.210938 24.894531 24.007813 25.105469 23.90625 25.40625 C 23.804688 25.707031 23.511719 25.894531 23.3125 26.09375 C 23.113281 26.292969 22.792969 26.488281 22.59375 26.6875 C 22.394531 26.886719 22.105469 26.988281 21.90625 27.1875 C 21.707031 27.386719 21.386719 27.488281 21.1875 27.6875 C 20.988281 27.886719 20.792969 27.988281 20.59375 28.1875 C 20.394531 28.386719 20.3125 28.585938 20.3125 28.6875 L 24.5 28.6875 L 24.5 29.6875 L 18.5 29.6875 C 18.5 28.988281 18.699219 28.3125 19 27.8125 C 19.300781 27.3125 19.804688 26.804688 20.40625 26.40625 C 20.707031 26.207031 21.011719 26.011719 21.3125 25.8125 C 21.613281 25.613281 21.894531 25.386719 22.09375 25.1875 C 22.394531 24.988281 22.585938 24.699219 22.6875 24.5 C 22.886719 24.199219 23 23.894531 23 23.59375 C 23 23.394531 23.007813 23.292969 22.90625 23.09375 C 22.90625 22.894531 22.789063 22.792969 22.6875 22.59375 C 22.585938 22.394531 22.414063 22.289063 22.3125 22.1875 C 22.113281 21.988281 21.800781 22 21.5 22 C 21.199219 22 21.011719 22.085938 20.8125 22.1875 C 20.613281 22.289063 20.507813 22.488281 20.40625 22.6875 C 20.304688 22.886719 20.1875 23.105469 20.1875 23.40625 C 20.085938 23.707031 20.09375 24.011719 20.09375 24.3125 L 18.6875 24.3125 C 18.6875 23.8125 18.804688 23.398438 18.90625 23 C 19.007813 22.601563 19.199219 22.207031 19.5 21.90625 C 19.800781 21.605469 20.105469 21.386719 20.40625 21.1875 C 20.804688 20.988281 21.1875 20.90625 21.6875 20.90625 Z M 28.3125 21.90625 C 28.011719 21.90625 27.699219 21.988281 27.5 22.1875 C 27.300781 22.386719 27.101563 22.605469 27 22.90625 C 26.898438 23.207031 26.789063 23.601563 26.6875 24 C 26.6875 24.398438 26.59375 24.8125 26.59375 25.3125 C 26.59375 25.8125 26.585938 26.195313 26.6875 26.59375 C 26.789063 26.992188 26.800781 27.386719 27 27.6875 C 27.101563 27.988281 27.300781 28.207031 27.5 28.40625 C 27.800781 28.605469 28.011719 28.6875 28.3125 28.6875 C 28.613281 28.6875 28.894531 28.605469 29.09375 28.40625 C 29.292969 28.207031 29.492188 27.988281 29.59375 27.6875 C 29.695313 27.386719 29.804688 26.992188 29.90625 26.59375 C 29.90625 26.195313 30 25.8125 30 25.3125 C 30 24.8125 30.007813 24.398438 29.90625 24 C 29.90625 23.601563 29.792969 23.207031 29.59375 22.90625 C 29.394531 22.605469 29.292969 22.386719 29.09375 22.1875 C 28.894531 21.988281 28.613281 21.90625 28.3125 21.90625 Z M 11.40625 34 L 25 47.59375 L 38.59375 34 Z M 8.8125 34.21875 L 1.09375 38.15625 L 24.5625 49.90625 C 24.464844 49.859375 24.363281 49.800781 24.28125 49.71875 Z M 41.1875 34.21875 L 25.71875 49.71875 C 25.636719 49.800781 25.535156 49.859375 25.4375 49.90625 L 49.125 38.0625 C 48.980469 38.058594 48.699219 37.972656 48.5625 37.90625 Z " fill="#5d534d"/></g></svg>
