<?xml version="1.0" encoding="UTF-8"?>
<svg xmlns="http://www.w3.org/2000/svg" xmlns:xlink="http://www.w3.org/1999/xlink" viewBox="0 0 26 26" version="1.1" fill="#5d534d"><g id="surface1" fill="#5d534d"><path style=" " d="M 13.5 0.125 C 13.34375 0.125 13.175781 0.152344 13.0625 0.21875 L 2.1875 4.0625 C 1.710938 4.308594 1.710938 4.671875 2.1875 4.9375 L 13.0625 9.4375 C 13.1875 9.53125 13.78125 9.542969 13.9375 9.4375 L 24.8125 4.9375 C 25.230469 4.730469 25.210938 4.308594 24.8125 4.0625 L 13.9375 0.21875 C 13.804688 0.152344 13.65625 0.125 13.5 0.125 Z M 13.4375 3.46875 C 13.96875 3.464844 14.480469 3.542969 14.875 3.6875 C 15.527344 3.929688 15.621094 4.253906 15.625 4.4375 C 15.628906 4.617188 15.566406 4.941406 14.9375 5.1875 C 14.535156 5.347656 13.972656 5.4375 13.40625 5.4375 C 12.859375 5.4375 12.359375 5.367188 11.96875 5.21875 C 11.339844 4.980469 11.25 4.648438 11.25 4.46875 C 11.25 4.289063 11.332031 3.933594 11.96875 3.6875 C 12.359375 3.535156 12.90625 3.472656 13.4375 3.46875 Z M 1.40625 6.125 C 1.167969 6.105469 1 6.242188 1 6.5 L 1 19.15625 C 1 19.5 1.289063 19.917969 1.65625 20.09375 L 12.34375 25.8125 C 12.714844 25.988281 13 25.84375 13 25.5 L 13 11.625 C 13 11.28125 12.714844 10.863281 12.34375 10.6875 L 1.65625 6.1875 C 1.5625 6.144531 1.484375 6.132813 1.40625 6.125 Z M 25.59375 6.125 C 25.515625 6.132813 25.4375 6.144531 25.34375 6.1875 L 14.65625 10.6875 C 14.285156 10.863281 14 11.28125 14 11.625 L 14 25.5 C 14 25.84375 14.285156 25.988281 14.65625 25.8125 L 25.34375 20.09375 C 25.710938 19.917969 26 19.5 26 19.15625 L 26 6.5 C 26 6.242188 25.832031 6.105469 25.59375 6.125 Z M 9.625 11 C 9.8125 11 10.023438 11.070313 10.21875 11.15625 C 11.101563 11.539063 11.78125 12.628906 11.78125 13.65625 C 11.78125 14.058594 11.671875 14.40625 11.46875 14.65625 C 11.257813 14.914063 10.960938 15.0625 10.625 15.0625 C 10.425781 15.0625 10.242188 15.003906 10.03125 14.90625 C 9.167969 14.507813 8.46875 13.410156 8.46875 12.40625 C 8.46875 11.589844 8.941406 11 9.625 11 Z M 18.75 12.125 C 19.421875 12.125 19.875 12.6875 19.875 13.5 C 19.875 14.492188 19.21875 15.566406 18.375 15.96875 C 18.164063 16.070313 17.949219 16.125 17.75 16.125 C 17.078125 16.125 16.625 15.5625 16.625 14.75 C 16.625 13.738281 17.296875 12.636719 18.15625 12.25 C 18.355469 12.160156 18.558594 12.125 18.75 12.125 Z M 6.21875 13.53125 C 6.40625 13.53125 6.613281 13.59375 6.8125 13.6875 C 7.648438 14.078125 8.3125 15.15625 8.3125 16.15625 C 8.3125 16.542969 8.1875 16.886719 8 17.125 C 7.804688 17.371094 7.539063 17.5 7.21875 17.5 C 7.019531 17.5 6.804688 17.445313 6.59375 17.34375 C 5.777344 16.941406 5.125 15.851563 5.125 14.875 C 5.125 14.070313 5.566406 13.53125 6.21875 13.53125 Z M 22.71875 15.03125 C 23.347656 15.03125 23.78125 15.5625 23.78125 16.34375 C 23.78125 17.304688 23.132813 18.375 22.34375 18.78125 C 22.132813 18.890625 21.949219 18.9375 21.75 18.9375 C 21.125 18.9375 20.6875 18.4375 20.6875 17.65625 C 20.6875 16.675781 21.316406 15.582031 22.125 15.1875 C 22.324219 15.089844 22.53125 15.03125 22.71875 15.03125 Z M 3 15.9375 C 3.1875 15.9375 3.367188 15.996094 3.5625 16.09375 C 4.355469 16.488281 4.96875 17.558594 4.96875 18.53125 C 4.96875 18.902344 4.894531 19.238281 4.71875 19.46875 C 4.53125 19.710938 4.242188 19.84375 3.9375 19.84375 C 3.738281 19.84375 3.550781 19.765625 3.34375 19.65625 C 2.570313 19.253906 1.96875 18.203125 1.96875 17.25 C 1.96875 16.472656 2.382813 15.9375 3 15.9375 Z " fill="#5d534d"/></g></svg>
