<?xml version="1.0" encoding="UTF-8"?>
<svg xmlns="http://www.w3.org/2000/svg" xmlns:xlink="http://www.w3.org/1999/xlink" viewBox="0 0 24 24" version="1.1" fill="#5d534d"><g id="surface1" fill="#5d534d"><path style=" " d="M 15.9375 2 L 4.28125 13.625 L 4.09375 13.8125 L 4.03125 14.09375 L 2.46875 20.3125 L 2.0625 21.9375 L 3.6875 21.53125 L 9.90625 19.96875 L 10.1875 19.90625 L 22.0625 8.03125 L 20.65625 6.59375 L 10.65625 16.59375 C 10.25 16.089844 9.628906 15.613281 8.78125 15.28125 C 8.5 14.363281 7.984375 13.695313 7.4375 13.3125 L 17.34375 3.40625 Z M 5.96875 14.78125 C 6.058594 14.796875 6.175781 14.839844 6.3125 14.90625 C 6.585938 15.042969 6.867188 15.253906 7 16.15625 L 7.09375 16.8125 L 7.75 16.96875 C 8.628906 17.1875 8.984375 17.589844 9.1875 17.9375 C 9.210938 17.976563 9.199219 17.996094 9.21875 18.03125 L 9.15625 18.09375 L 6.375 18.78125 L 5.21875 17.625 L 5.90625 14.84375 Z " fill="#5d534d"/></g></svg>
