<?xml version="1.0" encoding="utf-8"?>
<svg xmlns="http://www.w3.org/2000/svg" viewBox="0 0 30 30" fill="#5d534d"><path d="M 5 4 C 3.895 4 3 4.895 3 6 L 3 9 L 3 25 A 1.0001 1.0001 0 0 0 4 26 L 26 26 A 1.0001 1.0001 0 0 0 27 25 L 27 8 L 27 6 C 27 4.895 26.105 4 25 4 L 5 4 z M 5 9 L 25 9 L 25 24 L 5 24 L 5 9 z M 8 11 A 1.0001 1.0001 0 1 0 8 13 L 22 13 A 1.0001 1.0001 0 1 0 22 11 L 8 11 z M 8 15 C 7.448 15 7 15.448 7 16 L 7 21 C 7 21.552 7.448 22 8 22 L 13 22 C 13.552 22 14 21.552 14 21 L 14 16 C 14 15.448 13.552 15 13 15 L 8 15 z M 17 15 C 16.448 15 16 15.448 16 16 L 16 21 C 16 21.552 16.448 22 17 22 L 22 22 C 22.552 22 23 21.552 23 21 L 23 16 C 23 15.448 22.552 15 22 15 L 17 15 z" fill="#5d534d"/></svg>
