<?xml version="1.0" encoding="UTF-8"?>
<svg xmlns="http://www.w3.org/2000/svg" xmlns:xlink="http://www.w3.org/1999/xlink" viewBox="0 0 50 50" version="1.1" fill="#f2f2f2"><g id="surface1" fill="#f2f2f2"><path style=" " d="M 8 2 C 7.871094 2 7.742188 2.015625 7.625 2.0625 C 7.394531 2.15625 2 4.402344 2 10 C 2 10.011719 2 10.019531 2 10.03125 C 2.003906 10.136719 2.023438 10.242188 2.0625 10.34375 L 4.9375 18 L 2.15625 25.4375 C 2.144531 25.46875 2.132813 25.5 2.125 25.53125 L 2.09375 25.59375 C 2.082031 25.605469 2.074219 25.613281 2.0625 25.625 L 2.0625 25.65625 C 2.039063 25.707031 2.015625 25.757813 2 25.8125 C 1.996094 25.832031 2.003906 25.855469 2 25.875 C 1.996094 25.917969 1.996094 25.957031 2 26 C 2 26.039063 1.996094 26.085938 2 26.125 L 2 47 C 2 47.242188 2.089844 47.476563 2.25 47.65625 C 2.265625 47.671875 2.265625 47.703125 2.28125 47.71875 C 2.457031 47.890625 2.691406 47.988281 2.9375 48 C 2.957031 48 2.976563 48 3 48 L 47 48 C 47.128906 47.992188 47.257813 47.960938 47.375 47.90625 C 47.40625 47.894531 47.441406 47.890625 47.46875 47.875 C 47.523438 47.839844 47.578125 47.796875 47.625 47.75 C 47.632813 47.746094 47.648438 47.757813 47.65625 47.75 C 47.691406 47.722656 47.722656 47.691406 47.75 47.65625 C 47.757813 47.644531 47.773438 47.636719 47.78125 47.625 C 47.921875 47.449219 48 47.226563 48 47 L 48 26 C 48 25.960938 48.003906 25.914063 48 25.875 C 47.992188 25.855469 47.980469 25.832031 47.96875 25.8125 C 47.960938 25.769531 47.953125 25.730469 47.9375 25.6875 C 47.929688 25.667969 47.917969 25.644531 47.90625 25.625 L 47.875 25.53125 L 45.0625 18 L 47.9375 10.34375 C 47.976563 10.242188 47.996094 10.136719 48 10.03125 C 48 10.019531 48 10.011719 48 10 C 48 4.363281 42.605469 2.152344 42.375 2.0625 C 42.257813 2.015625 42.125 2 42 2 Z M 25 6 C 26.863281 6 28.398438 7.277344 28.84375 9 L 21.15625 9 C 21.601563 7.277344 23.136719 6 25 6 Z M 4.4375 11 L 45.5625 11 L 43.3125 17 L 33.46875 17 C 33.449219 17 33.425781 17 33.40625 17 C 32.765625 16.394531 31.964844 16 31 16 C 30.253906 16 29.59375 16.265625 29 16.625 C 28.40625 16.265625 27.746094 16 27 16 C 26.746094 16 26.519531 16.078125 26.28125 16.125 C 25.589844 14.929688 24.472656 14 23 14 C 21.527344 14 20.410156 14.929688 19.71875 16.125 C 19.480469 16.078125 19.253906 16 19 16 C 18.007813 16 17.121094 16.390625 16.4375 17 L 6.6875 17 Z M 23 16 C 23.929688 16 24.675781 16.613281 24.90625 17.46875 C 24.976563 17.75 25.164063 17.988281 25.421875 18.117188 C 25.679688 18.25 25.980469 18.265625 26.25 18.15625 C 26.488281 18.0625 26.742188 18 27 18 C 27.511719 18 27.980469 18.203125 28.34375 18.53125 C 28.71875 18.859375 29.28125 18.859375 29.65625 18.53125 C 30.019531 18.203125 30.488281 18 31 18 C 31.953125 18 32.726563 18.652344 32.9375 19.53125 C 33 19.808594 33.179688 20.046875 33.433594 20.1875 C 33.683594 20.324219 33.980469 20.347656 34.25 20.25 C 34.652344 20.097656 35.074219 20 35.5 20 C 37.382813 20 38.875 21.453125 38.96875 23.3125 C 38.988281 23.726563 39.261719 24.089844 39.65625 24.21875 C 40.140625 24.386719 40.582031 24.652344 40.9375 25 L 9 25 C 9 23.882813 9.882813 23 11 23 C 11.257813 23 11.511719 23.058594 11.75 23.15625 C 12.019531 23.265625 12.320313 23.25 12.578125 23.117188 C 12.835938 22.988281 13.023438 22.75 13.09375 22.46875 C 13.324219 21.613281 14.070313 21 15 21 C 15.222656 21 15.453125 21.039063 15.6875 21.125 C 16.003906 21.242188 16.359375 21.191406 16.628906 20.988281 C 16.902344 20.785156 17.050781 20.460938 17.03125 20.125 C 17.019531 19.945313 17 19.910156 17 20 C 17 18.882813 17.882813 18 19 18 C 19.257813 18 19.511719 18.058594 19.75 18.15625 C 20.019531 18.265625 20.320313 18.25 20.578125 18.117188 C 20.835938 17.988281 21.023438 17.75 21.09375 17.46875 C 21.324219 16.613281 22.070313 16 23 16 Z M 6.6875 19 L 15.1875 19 C 15.183594 19.007813 15.191406 19.023438 15.1875 19.03125 C 15.121094 19.027344 15.066406 19 15 19 C 13.527344 19 12.410156 19.929688 11.71875 21.125 C 11.480469 21.078125 11.253906 21 11 21 C 8.800781 21 7 22.800781 7 25 L 4.4375 25 Z M 38.53125 19 L 43.3125 19 L 45.5625 25 L 43.375 25 C 42.808594 23.953125 41.898438 23.144531 40.8125 22.625 C 40.5625 21.125 39.707031 19.839844 38.53125 19 Z M 21 27 L 29 27 L 29 32 C 29 34.210938 27.210938 36 25 36 C 22.789063 36 21 34.210938 21 32 Z M 24 30 L 24 32 C 24 32.550781 24.449219 33 25 33 C 25.550781 33 26 32.550781 26 32 L 26 30 Z M 4 41.09375 C 6.511719 41.515625 8.484375 43.492188 8.90625 46 L 4 46 Z M 46 41.09375 L 46 46 L 41.09375 46 C 41.515625 43.492188 43.488281 41.515625 46 41.09375 Z " fill="#f2f2f2"/></g></svg>
