<?xml version="1.0" encoding="UTF-8"?>
<svg xmlns="http://www.w3.org/2000/svg" xmlns:xlink="http://www.w3.org/1999/xlink" viewBox="0 0 24 24" version="1.1" fill="#5d534d"><g id="surface1" fill="#5d534d"><path style=" " d="M 9 2 L 7.46875 3 C 7.46875 3 7.457031 5.890625 12 7.71875 C 16.539063 5.875 16.53125 3 16.53125 3 L 15 2 C 15 2 14.335938 3.125 13 3.5625 L 12 6 L 11 3.5625 C 9.664063 3.125 9 2 9 2 Z M 6.46875 3.1875 C 4.832031 3.597656 3.066406 4.699219 2.03125 6.8125 C 3.074219 7.132813 4.71875 8.464844 4.71875 10.1875 C 6.984375 10.1875 8.691406 8.726563 9.65625 7.625 C 6.976563 5.90625 6.535156 3.832031 6.46875 3.1875 Z M 17.53125 3.1875 C 17.464844 3.832031 17.023438 5.90625 14.34375 7.625 C 15.308594 8.726563 17.015625 10.1875 19.28125 10.1875 C 19.28125 8.464844 20.925781 7.132813 21.96875 6.8125 C 20.933594 4.699219 19.167969 3.597656 17.53125 3.1875 Z M 10.53125 8.125 C 10.53125 8.125 8.644531 11.15625 5.15625 11.15625 C 4.464844 15.476563 6.3125 17.25 6.3125 17.25 C 6.3125 17.25 8.203125 19 12 19 C 15.796875 19 17.6875 17.25 17.6875 17.25 C 17.6875 17.25 19.535156 15.476563 18.84375 11.15625 C 15.355469 11.15625 13.46875 8.125 13.46875 8.125 C 13.132813 8.300781 12.011719 8.777344 12 8.78125 C 11.988281 8.777344 10.867188 8.300781 10.53125 8.125 Z M 2.5625 8.25 C 2.246094 8.9375 2 11.746094 2 12.59375 C 2.707031 12.738281 3.625 13.148438 4 13.625 C 4.148438 9.273438 3.460938 8.882813 2.5625 8.25 Z M 21.4375 8.25 C 20.539063 8.882813 19.851563 9.273438 20 13.625 C 20.375 13.148438 21.292969 12.738281 22 12.59375 C 22 11.746094 21.753906 8.9375 21.4375 8.25 Z M 5.78125 18.125 L 5 19.65625 C 5 19.65625 7.457031 22 12 22 C 16.542969 22 19 19.65625 19 19.65625 L 18.21875 18.125 C 17.671875 18.5625 15.59375 20 12 20 C 8.425781 20 6.351563 18.578125 5.78125 18.125 Z " fill="#5d534d"/></g></svg>
