<?xml version="1.0" encoding="UTF-8"?>
<svg xmlns="http://www.w3.org/2000/svg" xmlns:xlink="http://www.w3.org/1999/xlink" viewBox="0 0 50 50" version="1.1" fill="#5d534d"><g id="surface1" fill="#5d534d"><path style=" " d="M 24.988281 3 C 24.863281 3 24.738281 3.027344 24.621094 3.074219 L 4.621094 11.242188 C 4.617188 11.246094 4.609375 11.246094 4.605469 11.25 C 4.59375 11.253906 4.585938 11.257813 4.578125 11.265625 C 4.558594 11.273438 4.539063 11.28125 4.519531 11.292969 C 4.507813 11.296875 4.496094 11.304688 4.484375 11.3125 C 4.464844 11.324219 4.449219 11.335938 4.429688 11.34375 C 4.425781 11.351563 4.417969 11.355469 4.414063 11.359375 C 4.390625 11.375 4.371094 11.390625 4.351563 11.40625 C 4.347656 11.410156 4.339844 11.414063 4.335938 11.421875 C 4.316406 11.4375 4.292969 11.460938 4.273438 11.480469 C 4.253906 11.503906 4.234375 11.523438 4.210938 11.546875 C 4.207031 11.558594 4.199219 11.566406 4.195313 11.574219 C 4.179688 11.59375 4.167969 11.613281 4.15625 11.636719 C 4.152344 11.636719 4.152344 11.640625 4.148438 11.640625 C 4.132813 11.667969 4.117188 11.695313 4.101563 11.722656 C 4.101563 11.726563 4.101563 11.730469 4.101563 11.734375 C 4.085938 11.757813 4.078125 11.785156 4.066406 11.8125 C 4.066406 11.816406 4.0625 11.820313 4.0625 11.824219 C 4.050781 11.851563 4.042969 11.882813 4.03125 11.910156 C 4.03125 11.914063 4.03125 11.917969 4.03125 11.921875 C 4.023438 11.949219 4.019531 11.976563 4.015625 12 C 4.011719 12.011719 4.011719 12.019531 4.007813 12.027344 C 4.007813 12.054688 4.003906 12.082031 4 12.109375 C 4 12.121094 4 12.132813 4 12.140625 C 4 12.152344 4 12.160156 4 12.167969 C 4 12.175781 4 12.179688 4 12.1875 L 4 36.832031 C 4 37.238281 4.246094 37.605469 4.621094 37.757813 L 24.621094 45.925781 C 24.742188 45.976563 24.871094 46 25 46 C 25.132813 46 25.257813 45.976563 25.378906 45.925781 L 45.378906 37.761719 C 45.753906 37.605469 46 37.238281 46 36.832031 L 46 12.167969 C 46 12.089844 45.992188 12.011719 45.972656 11.9375 C 45.96875 11.925781 45.96875 11.917969 45.964844 11.910156 C 45.945313 11.84375 45.921875 11.777344 45.890625 11.714844 C 45.882813 11.707031 45.878906 11.695313 45.875 11.6875 C 45.839844 11.625 45.800781 11.566406 45.753906 11.511719 C 45.75 11.503906 45.746094 11.5 45.746094 11.5 C 45.742188 11.496094 45.738281 11.492188 45.734375 11.488281 C 45.683594 11.433594 45.621094 11.382813 45.558594 11.339844 C 45.503906 11.300781 45.441406 11.269531 45.378906 11.242188 L 45.339844 11.226563 L 25.378906 3.074219 C 25.253906 3.023438 25.121094 3 24.988281 3 Z M 25 5.078125 L 42.351563 12.167969 L 25 19.25 L 7.648438 12.167969 Z M 6 13.65625 L 24 21.003906 L 24 43.511719 L 6 36.160156 Z " fill="#5d534d"/></g></svg>
