<?xml version="1.0" encoding="UTF-8"?>
<svg xmlns="http://www.w3.org/2000/svg" xmlns:xlink="http://www.w3.org/1999/xlink" viewBox="0 0 50 50" version="1.1" fill="#5d534d"><g id="surface1" fill="#5d534d"><path style=" " d="M 29.714844 19.601563 C 29.8125 20.007813 29.8125 20.515625 29.8125 21.019531 C 29.8125 21.628906 29.8125 22.035156 29.714844 22.539063 C 29.613281 23.046875 29.515625 23.453125 29.414063 23.757813 C 29.214844 24.0625 29.015625 24.363281 28.820313 24.566406 C 28.523438 24.769531 28.222656 24.871094 27.925781 24.871094 C 27.628906 24.871094 27.328125 24.769531 27.03125 24.566406 C 26.832031 24.363281 26.636719 24.0625 26.535156 23.757813 C 26.4375 23.453125 26.335938 23.046875 26.238281 22.539063 C 26.136719 22.035156 26.136719 21.527344 26.136719 21.019531 C 26.136719 20.515625 26.136719 20.109375 26.238281 19.601563 C 26.339844 19.097656 26.4375 18.691406 26.535156 18.386719 C 26.636719 18.082031 26.835938 17.777344 27.03125 17.574219 C 27.328125 17.375 27.53125 17.273438 27.925781 17.273438 C 28.324219 17.273438 28.621094 17.375 28.820313 17.574219 C 29.117188 17.777344 29.316406 18.082031 29.414063 18.386719 C 29.515625 18.792969 29.613281 19.195313 29.714844 19.601563 Z M 1.265625 32.5625 L 24.054688 50 L 24.054688 35.773438 L 11.125 24.464844 Z M 37.648438 22.953125 L 25.046875 33.972656 L 12.445313 22.953125 L 25.046875 2.746094 Z M 23.058594 15.953125 L 21.769531 15.953125 C 21.671875 16.257813 21.570313 16.5625 21.371094 16.765625 C 21.171875 16.96875 20.976563 17.171875 20.675781 17.273438 C 20.378906 17.472656 20.082031 17.472656 19.785156 17.574219 C 19.484375 17.675781 19.089844 17.675781 18.789063 17.675781 L 18.988281 17.675781 L 18.988281 18.894531 L 21.371094 18.894531 L 21.371094 25.882813 L 23.058594 25.882813 Z M 31.101563 22.640625 C 31.203125 22.035156 31.203125 21.425781 31.203125 20.917969 C 31.203125 20.414063 31.203125 19.804688 31.101563 19.195313 C 31.003906 18.589844 30.804688 18.082031 30.605469 17.574219 C 30.410156 17.070313 30.011719 16.664063 29.613281 16.359375 C 29.214844 16.054688 28.621094 15.851563 27.925781 15.851563 C 27.230469 15.851563 26.734375 16.054688 26.238281 16.359375 C 25.839844 16.664063 25.445313 17.070313 25.246094 17.574219 C 25.046875 18.082031 24.847656 18.589844 24.75 19.195313 C 24.648438 19.804688 24.648438 20.414063 24.648438 20.917969 C 24.648438 21.425781 24.648438 22.035156 24.75 22.640625 C 24.847656 23.25 25.046875 23.757813 25.246094 24.261719 C 25.445313 24.769531 25.839844 25.175781 26.238281 25.480469 C 26.632813 25.785156 27.230469 25.984375 27.925781 25.984375 C 28.621094 25.984375 29.214844 25.785156 29.613281 25.480469 C 30.011719 25.175781 30.410156 24.769531 30.605469 24.261719 C 30.804688 23.757813 31.003906 23.25 31.101563 22.640625 Z M 25.871094 0.300781 C 25.875 0.304688 25.878906 0.308594 25.882813 0.3125 L 39.691406 22.457031 L 49.667969 30.410156 L 43.871094 10.699219 C 43.796875 10.445313 43.628906 10.234375 43.402344 10.105469 C 43.402344 10.105469 25.535156 -0.0273438 25.578125 0.00390625 C 25.585938 0.00390625 25.835938 0.242188 25.871094 0.300781 Z M 24.210938 0.3125 C 24.210938 0.308594 24.21875 0.304688 24.222656 0.300781 C 24.257813 0.242188 24.453125 0.0664063 24.5 0.015625 C 24.503906 0.0117188 24.507813 0.00390625 24.515625 0.00390625 C 24.515625 0.00390625 24.507813 0.00390625 24.507813 0.00390625 C 24.511719 0.00390625 24.507813 0.00390625 24.496094 0.0117188 C 24.167969 0.195313 6.691406 10.105469 6.691406 10.105469 C 6.464844 10.230469 6.296875 10.445313 6.222656 10.699219 L 0.332031 30.726563 C 0.375 30.675781 0.542969 30.503906 0.59375 30.464844 L 10.394531 22.460938 Z M 38.96875 24.464844 L 26.039063 35.773438 L 26.039063 50 L 48.984375 32.441406 C 48.8125 32.414063 48.398438 32.164063 48.257813 32.046875 Z " fill="#5d534d"/></g></svg>
