<?xml version="1.0" encoding="UTF-8"?>
<svg xmlns="http://www.w3.org/2000/svg" xmlns:xlink="http://www.w3.org/1999/xlink" viewBox="0 0 50 50" version="1.1" fill="#5d534d"><g id="surface1" fill="#5d534d"><path style=" " d="M 25 0 C 24.863281 0 24.722656 0.0390625 24.59375 0.09375 L 11.4375 5.8125 L 11.84375 6.59375 C 11.855469 6.609375 11.867188 6.609375 11.875 6.625 L 16.90625 16 L 33.09375 16 L 38.125 6.625 C 38.152344 6.574219 38.1875 6.542969 38.21875 6.5 L 38.59375 5.8125 L 25.40625 0.09375 C 25.277344 0.0390625 25.136719 0 25 0 Z M 9.8125 7 L 1.3125 18.09375 C 1.160156 18.292969 1.074219 18.535156 1.09375 18.78125 L 2.3125 33.0625 L 3.03125 33 C 3.117188 32.964844 3.183594 32.917969 3.28125 32.90625 L 10.25 32.1875 L 15.21875 17.09375 Z M 40.21875 7.03125 L 34.78125 17.09375 L 39.75 32.1875 L 46.71875 32.90625 C 46.75 32.910156 46.75 32.929688 46.78125 32.9375 L 47.6875 33.03125 L 48.90625 18.78125 C 48.925781 18.53125 48.839844 18.292969 48.6875 18.09375 Z M 17.03125 18 L 12.1875 32.71875 L 25 41.78125 L 37.8125 32.71875 L 32.96875 18 Z M 28.59375 22.59375 C 29.292969 22.59375 29.914063 22.707031 30.3125 22.90625 C 30.8125 23.105469 31.105469 23.414063 31.40625 23.8125 C 31.707031 24.113281 31.898438 24.507813 32 24.90625 C 32.101563 25.304688 32.1875 25.695313 32.1875 26.09375 C 32.1875 26.59375 32.097656 27.011719 32 27.3125 C 31.898438 27.710938 31.707031 28.011719 31.40625 28.3125 C 31.207031 28.613281 30.894531 28.886719 30.59375 29.1875 C 30.292969 29.488281 29.988281 29.707031 29.6875 29.90625 C 29.386719 30.105469 29.085938 30.300781 28.6875 30.5 C 28.386719 30.699219 28.113281 30.894531 27.8125 31.09375 C 27.511719 31.292969 27.292969 31.488281 27.09375 31.6875 C 26.894531 31.886719 26.785156 32.207031 26.6875 32.40625 L 32.1875 32.40625 L 32.1875 34.09375 L 24.5 34.09375 C 24.5 33.195313 24.6875 32.292969 25.1875 31.59375 C 25.585938 30.894531 26.199219 30.3125 27 29.8125 C 27.398438 29.511719 27.695313 29.300781 28.09375 29 C 28.492188 28.699219 28.886719 28.488281 29.1875 28.1875 C 29.488281 27.886719 29.800781 27.613281 30 27.3125 C 30.199219 27.011719 30.3125 26.59375 30.3125 26.09375 C 30.3125 25.894531 30.289063 25.707031 30.1875 25.40625 C 30.1875 25.207031 30.105469 25.011719 29.90625 24.8125 C 29.804688 24.613281 29.613281 24.414063 29.3125 24.3125 C 29.113281 24.210938 28.710938 24.09375 28.3125 24.09375 C 27.914063 24.09375 27.605469 24.210938 27.40625 24.3125 C 27.207031 24.414063 27.011719 24.605469 26.8125 24.90625 C 26.710938 25.207031 26.5 25.511719 26.5 25.8125 C 26.398438 26.113281 26.40625 26.503906 26.40625 26.90625 L 24.59375 26.90625 C 24.59375 26.304688 24.707031 25.6875 24.90625 25.1875 C 25.105469 24.6875 25.289063 24.210938 25.6875 23.8125 C 25.988281 23.414063 26.40625 23.105469 26.90625 22.90625 C 27.40625 22.707031 27.894531 22.59375 28.59375 22.59375 Z M 20.1875 22.6875 L 21.6875 22.6875 L 21.6875 34 L 19.6875 34 L 19.6875 26 L 16.90625 26 L 16.90625 24.59375 C 17.304688 24.59375 17.699219 24.601563 18 24.5 C 18.398438 24.398438 18.699219 24.289063 19 24.1875 C 19.300781 23.988281 19.613281 23.894531 19.8125 23.59375 C 20.011719 23.394531 20.085938 23.085938 20.1875 22.6875 Z M 10.71875 34.125 L 2.96875 35 L 11.28125 46.375 C 11.417969 46.5625 11.617188 46.722656 11.84375 46.78125 L 24 49.78125 L 24 43.53125 Z M 39.28125 34.125 L 26 43.53125 L 26 49.78125 L 38.15625 46.78125 C 38.382813 46.722656 38.582031 46.566406 38.71875 46.375 L 47.0625 34.96875 Z " fill="#5d534d"/></g></svg>
