<?xml version="1.0" encoding="UTF-8"?>
<svg xmlns="http://www.w3.org/2000/svg" xmlns:xlink="http://www.w3.org/1999/xlink" viewBox="0 0 24 24" version="1.1" fill="#5d534d"><g id="surface1" fill="#5d534d"><path style=" " d="M 12 2 C 6.476563 2 2 6.476563 2 12 C 2 17.523438 6.476563 22 12 22 C 17.523438 22 22 17.523438 22 12 C 22 6.476563 17.523438 2 12 2 Z M 12 18 C 10.34375 18 8.863281 17.308594 7.777344 16.222656 L 6 18 L 6 13 L 11 13 L 9.1875 14.8125 C 9.90625 15.539063 10.894531 16 12 16 C 13.472656 16 14.75 15.191406 15.445313 14 L 17.648438 14 C 16.824219 16.328125 14.605469 18 12 18 Z M 18 11 L 13 11 L 14.8125 9.1875 C 14.09375 8.460938 13.105469 8 12 8 C 10.527344 8 9.25 8.808594 8.554688 10 L 6.351563 10 C 7.175781 7.671875 9.394531 6 12 6 C 13.65625 6 15.136719 6.691406 16.222656 7.777344 L 18 6 Z " fill="#5d534d"/></g></svg>
