<?xml version="1.0" encoding="UTF-8"?>
<svg xmlns="http://www.w3.org/2000/svg" xmlns:xlink="http://www.w3.org/1999/xlink" viewBox="0 0 50 50" version="1.1" fill="#5d534d"><g id="surface1" fill="#5d534d"><path style=" " d="M 25 1 C 11.699219 1 1 11.699219 1 25 C 1 38.300781 11.699219 49 25 49 C 38.300781 49 49 38.300781 49 25 C 49 20.101563 47.5 15.613281 45 11.8125 L 42.8125 14 L 40.1875 14 L 38.1875 16 C 39.886719 18.601563 41 21.699219 41 25 C 41 33.800781 33.800781 41 25 41 C 16.199219 41 9 33.800781 9 25 C 9 16.199219 16.199219 9 25 9 C 28.300781 9 31.398438 10.011719 34 11.8125 L 36 9.8125 L 36 7.1875 L 38.1875 5 C 34.386719 2.5 29.898438 1 25 1 Z M 43 3 L 38 8 L 38 10.59375 L 24.40625 24.21875 C 24.164063 24.402344 24 24.675781 24 25 C 24 25.550781 24.449219 26 25 26 C 25.324219 26 25.597656 25.835938 25.78125 25.59375 L 39.40625 12 L 42 12 L 47 7 L 43 7 Z M 25 16 C 20 16 16 20 16 25 C 16 30 20 34 25 34 C 30 34 34 30 34 25 C 34 23.601563 33.695313 22.292969 33.09375 21.09375 L 27.09375 27.09375 C 26.59375 27.695313 25.800781 28 25 28 C 23.300781 28 22 26.699219 22 25 C 22 24.199219 22.304688 23.40625 22.90625 22.90625 L 28.90625 16.90625 C 27.707031 16.304688 26.398438 16 25 16 Z " fill="#5d534d"/></g></svg>
