<?xml version="1.0" standalone="no"?>
<!DOCTYPE svg PUBLIC "-//W3C//DTD SVG 20010904//EN"
 "http://www.w3.org/TR/2001/REC-SVG-20010904/DTD/svg10.dtd">
<svg version="1.0" xmlns="http://www.w3.org/2000/svg"
 width="700.000000pt" height="700.000000pt" viewBox="0 0 700.000000 700.000000"
 preserveAspectRatio="xMidYMid meet">
<metadata>
Created by potrace 1.11, written by Peter Selinger 2001-2013
</metadata>
<g transform="translate(0.000000,700.000000) scale(0.100000,-0.100000)"
fill="#000000" stroke="none">
<path d="M1433 6100 c-119 -31 -210 -90 -299 -191 -135 -155 -233 -436 -250
-719 l-6 -95 217 -361 217 -362 -215 -503 -215 -504 -3 -515 c-2 -283 -2 -646
-1 -807 l2 -291 63 -7 c164 -18 292 -64 422 -150 216 -143 354 -378 381 -647
l6 -68 1748 0 1748 0 6 68 c27 269 165 504 381 647 130 86 258 132 423 150
l62 7 2 291 c1 161 1 524 -1 807 l-3 515 -215 504 -215 503 217 362 217 361
-6 85 c-16 236 -106 524 -204 659 -86 117 -149 174 -250 225 -116 59 2 56
-2167 55 -1913 0 -1993 -1 -2062 -19z m2202 -431 c151 -33 308 -156 379 -296
37 -75 66 -174 66 -230 l0 -33 -580 0 -580 0 0 33 c1 115 72 271 169 368 151
150 334 203 546 158z m-197 -1043 c29 -14 70 -43 92 -62 44 -40 95 -133 105
-193 l6 -39 46 20 c62 27 169 22 234 -11 l46 -23 44 24 c38 20 58 23 144 23
89 0 106 -3 157 -28 51 -25 158 -124 158 -147 0 -5 26 1 58 13 78 28 204 27
283 -2 159 -60 269 -198 286 -357 l6 -51 60 -6 c118 -11 268 -112 323 -220 28
-54 54 -139 54 -179 l0 -38 -729 0 -730 0 -3 -352 c-4 -339 -5 -356 -27 -415
-63 -171 -209 -313 -376 -366 -98 -31 -252 -31 -350 0 -167 53 -313 195 -376
366 -22 59 -23 76 -27 415 l-3 352 -653 0 -653 0 -7 38 c-15 95 31 220 110
299 65 64 140 97 239 101 84 4 95 10 95 52 0 44 46 124 94 167 78 69 189 91
281 57 22 -8 44 -16 49 -17 6 -1 13 14 16 34 11 62 58 144 110 193 72 68 126
89 237 94 l93 4 6 34 c9 48 73 143 119 178 21 16 64 40 94 53 48 20 69 23 146
20 74 -3 99 -8 143 -31z"/>
<path d="M2843 3937 l-71 -143 145 -73 c80 -39 147 -71 148 -69 2 2 34 66 73
144 l70 140 -144 72 c-79 40 -145 72 -147 72 -1 0 -34 -64 -74 -143z"/>
<path d="M4223 4007 l-142 -72 72 -137 c40 -75 75 -139 79 -143 3 -3 69 26
147 64 l141 71 -72 145 c-40 80 -75 145 -78 144 -3 0 -69 -32 -147 -72z"/>
<path d="M3445 2906 c-42 -18 -83 -69 -91 -112 -3 -19 -5 -76 -2 -127 3 -77 8
-99 27 -125 29 -41 69 -62 121 -62 52 0 92 21 122 62 21 30 23 43 23 155 0
107 -2 125 -21 149 -47 64 -119 88 -179 60z"/>
</g>
</svg>
